<svg width="50" height="33" viewBox="0 0 50 33" fill="none" xmlns="http://www.w3.org/2000/svg">
<rect width="50" height="33" fill="#F5F5F5"/>
<g clip-path="url(#clip0_0_1)">
<rect width="406" height="9010" transform="translate(-184 -2732)" fill="white"/>
<rect width="406" height="916" transform="translate(-184 -214)" fill="white"/>
<g clip-path="url(#clip1_0_1)">
<g clip-path="url(#clip2_0_1)">
<g clip-path="url(#clip3_0_1)">
<g clip-path="url(#clip4_0_1)">
<path d="M52.0908 -26H-5.90918C-7.56603 -26 -8.90918 -24.6569 -8.90918 -23V35C-8.90918 36.6569 -7.56603 38 -5.90918 38H52.0908C53.7477 38 55.0908 36.6569 55.0908 35V-23C55.0908 -24.6569 53.7477 -26 52.0908 -26Z" fill="#3178C6"/>
<path fill-rule="evenodd" clip-rule="evenodd" d="M28.2219 23.734V30.747C29.3581 31.331 30.7018 31.7695 32.2532 32.0615C33.8045 32.354 35.4396 32.5 37.1584 32.5C38.8336 32.5 40.4249 32.3395 41.9323 32.018C43.4403 31.6965 44.7618 31.167 45.8983 30.429C47.0343 29.691 47.9338 28.727 48.5968 27.536C49.2593 26.3455 49.5908 24.8735 49.5908 23.1203C49.5908 21.8493 49.4013 20.7353 49.0228 19.7783C48.6438 18.8214 48.0978 17.9704 47.3838 17.2252C46.6703 16.4801 45.8143 15.8117 44.8168 15.22C43.8188 14.6283 42.6938 14.0694 41.4408 13.5435C40.5232 13.1636 39.7002 12.7947 38.9719 12.4368C38.2436 12.0788 37.6245 11.7136 37.1147 11.341C36.6049 10.9684 36.2116 10.574 35.9348 10.1576C35.6581 9.74125 35.5197 9.27005 35.5197 8.7441C35.5197 8.26195 35.6435 7.8273 35.8911 7.44015C36.1388 7.053 36.4884 6.7206 36.9399 6.443C37.3915 6.16545 37.945 5.94995 38.6005 5.79655C39.256 5.6431 39.9843 5.5664 40.7854 5.5664C41.3683 5.5664 41.9833 5.61025 42.6318 5.6979C43.2798 5.78555 43.9318 5.9207 44.5873 6.10335C45.2428 6.28595 45.8798 6.51605 46.4993 6.79365C47.1183 7.07125 47.6898 7.39265 48.2143 7.7579V1.20535C47.1508 0.796251 45.9893 0.493101 44.7293 0.295851C43.4693 0.0986008 42.0238 0 40.3921 0C38.7316 0 37.1584 0.17895 35.6726 0.5369C34.1869 0.89485 32.8795 1.4537 31.7506 2.2134C30.6217 2.97315 29.7295 3.94105 29.0741 5.11715C28.4186 6.29325 28.0908 7.69945 28.0908 9.3358C28.0908 11.4251 28.6917 13.2074 29.8934 14.683C31.0952 16.1587 32.9196 17.4078 35.3667 18.4305C36.3281 18.825 37.224 19.2122 38.0542 19.592C38.8845 19.9719 39.6019 20.3664 40.2064 20.7755C40.8109 21.1846 41.2878 21.6302 41.6373 22.1123C41.9873 22.5944 42.1618 23.1423 42.1618 23.7559C42.1618 24.209 42.0528 24.629 41.8343 25.016C41.6158 25.403 41.2843 25.739 40.8401 26.024C40.3958 26.309 39.8423 26.532 39.1795 26.6925C38.5167 26.853 37.7411 26.9335 36.8525 26.9335C35.3376 26.9335 33.8373 26.667 32.3515 26.1335C30.8657 25.6005 29.4892 24.8005 28.2219 23.734ZM16.4421 6.2772H25.5908V0.5H0.0908203V6.2772H9.19477V32H16.4421V6.2772Z" fill="white"/>
</g>
</g>
</g>
</g>
</g>
<defs>
<clipPath id="clip0_0_1">
<rect width="406" height="9010" fill="white" transform="translate(-184 -2732)"/>
</clipPath>
<clipPath id="clip1_0_1">
<rect width="374" height="788" fill="white" transform="translate(-168 -150)"/>
</clipPath>
<clipPath id="clip2_0_1">
<rect width="374" height="664" fill="white" transform="translate(-168 -26)"/>
</clipPath>
<clipPath id="clip3_0_1">
<rect width="80" height="96" fill="white" transform="translate(-16.9092 -26)"/>
</clipPath>
<clipPath id="clip4_0_1">
<rect width="64" height="64" fill="white" transform="translate(-8.90918 -26)"/>
</clipPath>
</defs>
</svg>
